{"title":"WPC 56 S02","uid":11740388,"size":2453765339,"categoryP":"video","categoryS":"tv_shows","magnet":"?xt=urn:btih:697c959ef7610cff33316f7461e71351f288a7d9&amp;dn=WPC+56+S02&amp;tr=udp%3A%2F%2Ftracker.openbittorrent.com%3A80&amp;tr=udp%3A%2F%2Fopen.demonii.com%3A1337&amp;tr=udp%3A%2F%2Ftracker.coppersurfer.tk%3A6969&amp;tr=udp%3A%2F%2Fexodus.desync.com%3A6969","seeders":7,"leechers":2,"uploader":"RedBaron58","files":5,"time":1425769748,"description":"WPC 56 S02 x264 mp4\n  &lt;a href=&quot;\nhttp://www.imdb.com/title/tt2678354/&quot; rel=&quot;nofollow&quot; target=&quot;_NEW&quot;&gt;\nhttp://www.imdb.com/title/tt2678354/&lt;/a&gt;\n\nTrailer:\n\n\nThank you for your kind comments and feedback on my other torrents, your feedback is welcome.\n\n\nAbout the Series:\nDetective Inspector Jack Burns leaves the police to look after his sick wife and his daughters. \nHe is replaced by, Londoner, Detective Inspector Max Harper. Inspector Nelson and Desk Sergeant Pratt \nare replaced by Briggs and Swift. Police Constable Eddie Coulson is on honeymoon with Cathy Sinclair. \nHis father is now Assistant Chief Constable Coulson and he has sexual designs on WPC Dawson. \nSergeant Fenton has a daughter and is on friendly terms with the local brothel madam, \nRosie Turner, and crooked boxing promotor and villain, Lenny Powell. Cathy Sinclair is replaced by \nSusie Nightingale as the new secretary.\n\nThe second series revolves round a councilor's dead body and his missing girlfriend.\n\n\nI hope you enjoy.\n\n\nTechnical: (All episodes are encoded to the same settings)\n\nGeneral\nComplete name                            : H:WPC 56 S02WPC 56 S02E01 Cry Cry Cry x264 RB58.mp4\nFormat                                   : MPEG-4\nFormat profile                           : Base Media\nCodec ID                                 : isom\nFile size                                : 456 MiB\nDuration                                 : 42mn 20s\nOverall bit rate mode                    : Variable\nOverall bit rate                         : 1 506 Kbps\nWriting application                      : Lavf54.63.104\n\nVideo\nID                                       : 1\nFormat                                   : AVC\nFormat/Info                              : Advanced Video Codec\nFormat profile                           : &lt;a class=&quot;__cf_email__&quot; href=&quot;/cdn-cgi/l/email-protection&quot; data-cfemail=&quot;612c00080f212d524f50&quot;&gt;[email&amp;#160;protected]&lt;/a&gt;&lt;script cf-hash='f9e31' type=&quot;text/javascript&quot;&gt;\n/* &lt;![CDATA[ */!function(){try{var t=&quot;currentScript&quot;in document?document.currentScript:function(){for(var t=document.getElementsByTagName(&quot;script&quot;),e=t.length;e--;)if(t[e].getAttribute(&quot;cf-hash&quot;))return t[e]}();if(t&amp;&amp;t.previousSibling){var e,r,n,i,c=t.previousSibling,a=c.getAttribute(&quot;data-cfemail&quot;);if(a){for(e=&quot;&quot;,r=parseInt(a.substr(0,2),16),n=2;a.length-n;n+=2)i=parseInt(a.substr(n,2),16)^r,e+=String.fromCharCode(i);e=document.createTextNode(e),c.parentNode.replaceChild(e,c)}}}catch(u){}}();/* ]]&gt; */&lt;/script&gt;\nFormat settings, CABAC                   : Yes\nFormat settings, ReFrames                : 2 frames\nCodec ID                                 : avc1\nCodec ID/Info                            : Advanced Video Coding\nDuration                                 : 42mn 20s\nBit rate mode                            : Constant\nBit rate                                 : 1 404 Kbps\nWidth                                    : 832 pixels\nHeight                                   : 468 pixels\nDisplay aspect ratio                     : 16:9\nFrame rate mode                          : Constant\nFrame rate                               : 25.000 fps\nColor space                              : YUV\nChroma subsampling                       : 4:2:0\nBit depth                                : 8 bits\nScan type                                : Progressive\nBits/(Pixel*Frame)                       : 0.144\nStream size                              : 425 MiB (93%)\n\nAudio\nID                                       : 2\nFormat                                   : AAC\nFormat/Info                              : Advanced Audio Codec\nFormat profile                           : LC\nCodec ID                                 : 40\nDuration                                 : 42mn 20s\nBit rate mode                            : Variable\nBit rate                                 : 93.5 Kbps\nMaximum bit rate                         : 128 Kbps\nChannel(s)                               : 2 channels\nChannel positions                        : Front: L R\nSampling rate                            : 48.0 KHz\nCompression mode                         : Lossy\nStream size                              : 28.3 MiB (6%)\nLanguage                                 : English","torrent":{"xt":"urn:btih:697c959ef7610cff33316f7461e71351f288a7d9","amp;dn":"WPC+56+S02","amp;tr":["udp%3A%2F%2Ftracker.openbittorrent.com%3A80","udp%3A%2F%2Fopen.demonii.com%3A1337","udp%3A%2F%2Ftracker.coppersurfer.tk%3A6969","udp%3A%2F%2Fexodus.desync.com%3A6969"],"infoHash":"697c959ef7610cff33316f7461e71351f288a7d9","infoHashBuffer":{"type":"Buffer","data":[105,124,149,158,247,97,12,255,51,49,111,116,97,231,19,81,242,136,167,217]},"announce":[],"urlList":[]}}